<?xml version="1.0" encoding="UTF-8" standalone="no"?>
<!DOCTYPE svg PUBLIC "-//W3C//DTD SVG 1.1//EN"
 "http://www.w3.org/Graphics/SVG/1.1/DTD/svg11.dtd">
<!-- Generated by graphviz version 2.43.0 (0)
 -->
<!-- Title: SNF_Report_Map Pages: 1 -->
<svg width="2341pt" height="350pt"
 viewBox="0.00 0.00 2341.00 350.00" xmlns="http://www.w3.org/2000/svg" xmlns:xlink="http://www.w3.org/1999/xlink">
<g id="graph0" class="graph" transform="scale(1 1) rotate(0) translate(4 346)">
<title>SNF_Report_Map</title>
<polygon fill="white" stroke="transparent" points="-4,4 -4,-346 2337,-346 2337,4 -4,4"/>
<g id="clust1" class="cluster">
<title>cluster_outcomes</title>
<path fill="white" stroke="#a6a6a6" d="M317,-256C317,-256 1973,-256 1973,-256 1979,-256 1985,-262 1985,-268 1985,-268 1985,-322 1985,-322 1985,-328 1979,-334 1973,-334 1973,-334 317,-334 317,-334 311,-334 305,-328 305,-322 305,-322 305,-268 305,-268 305,-262 311,-256 317,-256"/>
<text text-anchor="middle" x="1145" y="-263.4" font-family="Arial" font-size="12.00">Outcomes / Metrics</text>
</g>
<g id="clust2" class="cluster">
<title>cluster_usecases</title>
<path fill="white" stroke="#a6a6a6" d="M20,-175C20,-175 2313,-175 2313,-175 2319,-175 2325,-181 2325,-187 2325,-187 2325,-236 2325,-236 2325,-242 2319,-248 2313,-248 2313,-248 20,-248 20,-248 14,-248 8,-242 8,-236 8,-236 8,-187 8,-187 8,-181 14,-175 20,-175"/>
<text text-anchor="middle" x="1166.5" y="-182.4" font-family="Arial" font-size="12.00">Key Use Cases (selected highlights)</text>
</g>
<g id="clust3" class="cluster">
<title>cluster_domains</title>
<path fill="white" stroke="#a6a6a6" d="M472,-94C472,-94 1682,-94 1682,-94 1688,-94 1694,-100 1694,-106 1694,-106 1694,-155 1694,-155 1694,-161 1688,-167 1682,-167 1682,-167 472,-167 472,-167 466,-167 460,-161 460,-155 460,-155 460,-106 460,-106 460,-100 466,-94 472,-94"/>
<text text-anchor="middle" x="1077" y="-101.4" font-family="Arial" font-size="12.00">Domains</text>
</g>
<g id="clust4" class="cluster">
<title>cluster_foundations</title>
<path fill="white" stroke="#a6a6a6" d="M521,-8C521,-8 1730,-8 1730,-8 1736,-8 1742,-14 1742,-20 1742,-20 1742,-74 1742,-74 1742,-80 1736,-86 1730,-86 1730,-86 521,-86 521,-86 515,-86 509,-80 509,-74 509,-74 509,-20 509,-20 509,-14 515,-8 521,-8"/>
<text text-anchor="middle" x="1125.5" y="-15.4" font-family="Arial" font-size="12.00">Foundations (platform + operating model)</text>
</g>
<!-- out_denials -->
<g id="node1" class="node">
<title>out_denials</title>
<path fill="#fff2cc" stroke="#7f6000" d="M1339,-326C1339,-326 1221,-326 1221,-326 1215,-326 1209,-320 1209,-314 1209,-314 1209,-297 1209,-297 1209,-291 1215,-285 1221,-285 1221,-285 1339,-285 1339,-285 1345,-285 1351,-291 1351,-297 1351,-297 1351,-314 1351,-314 1351,-320 1345,-326 1339,-326"/>
<text text-anchor="middle" x="1280" y="-314" font-family="Arial" font-size="10.00">Denials / improper payments</text>
<text text-anchor="middle" x="1280" y="-303" font-family="Arial" font-size="10.00">~$5.9B; 17.2% (FY2024)</text>
<text text-anchor="middle" x="1280" y="-292" font-family="Arial" font-size="10.00">(p2)</text>
</g>
<!-- out_admit -->
<g id="node2" class="node">
<title>out_admit</title>
<path fill="#fff2cc" stroke="#7f6000" d="M1965,-326C1965,-326 1837,-326 1837,-326 1831,-326 1825,-320 1825,-314 1825,-314 1825,-297 1825,-297 1825,-291 1831,-285 1837,-285 1837,-285 1965,-285 1965,-285 1971,-285 1977,-291 1977,-297 1977,-297 1977,-314 1977,-314 1977,-320 1971,-326 1965,-326"/>
<text text-anchor="middle" x="1901" y="-314" font-family="Arial" font-size="10.00">Admissions cycle time</text>
<text text-anchor="middle" x="1901" y="-303" font-family="Arial" font-size="10.00">(time&#45;to&#45;decision/time&#45;to&#45;admit)</text>
<text text-anchor="middle" x="1901" y="-292" font-family="Arial" font-size="10.00">(p15)</text>
</g>
<!-- out_ap -->
<g id="node3" class="node">
<title>out_ap</title>
<path fill="#fff2cc" stroke="#7f6000" d="M1795,-326C1795,-326 1703,-326 1703,-326 1697,-326 1691,-320 1691,-314 1691,-314 1691,-297 1691,-297 1691,-291 1697,-285 1703,-285 1703,-285 1795,-285 1795,-285 1801,-285 1807,-291 1807,-297 1807,-297 1807,-314 1807,-314 1807,-320 1801,-326 1795,-326"/>
<text text-anchor="middle" x="1749" y="-314" font-family="Arial" font-size="10.00">AP invoice cycle time</text>
<text text-anchor="middle" x="1749" y="-303" font-family="Arial" font-size="10.00">(touchless % invoices)</text>
<text text-anchor="middle" x="1749" y="-292" font-family="Arial" font-size="10.00">(p15)</text>
</g>
<!-- out_staff -->
<g id="node4" class="node">
<title>out_staff</title>
<path fill="#fff2cc" stroke="#7f6000" d="M1660.5,-326C1660.5,-326 1533.5,-326 1533.5,-326 1527.5,-326 1521.5,-320 1521.5,-314 1521.5,-314 1521.5,-297 1521.5,-297 1521.5,-291 1527.5,-285 1533.5,-285 1533.5,-285 1660.5,-285 1660.5,-285 1666.5,-285 1672.5,-291 1672.5,-297 1672.5,-297 1672.5,-314 1672.5,-314 1672.5,-320 1666.5,-326 1660.5,-326"/>
<text text-anchor="middle" x="1597" y="-314" font-family="Arial" font-size="10.00">Overtime hours / agency hours</text>
<text text-anchor="middle" x="1597" y="-303" font-family="Arial" font-size="10.00">(open shift fill time)</text>
<text text-anchor="middle" x="1597" y="-292" font-family="Arial" font-size="10.00">(p15)</text>
</g>
<!-- out_survey -->
<g id="node5" class="node">
<title>out_survey</title>
<path fill="#fff2cc" stroke="#7f6000" d="M1178.5,-326C1178.5,-326 1035.5,-326 1035.5,-326 1029.5,-326 1023.5,-320 1023.5,-314 1023.5,-314 1023.5,-297 1023.5,-297 1023.5,-291 1029.5,-285 1035.5,-285 1035.5,-285 1178.5,-285 1178.5,-285 1184.5,-285 1190.5,-291 1190.5,-297 1190.5,-297 1190.5,-314 1190.5,-314 1190.5,-320 1184.5,-326 1178.5,-326"/>
<text text-anchor="middle" x="1107" y="-314" font-family="Arial" font-size="10.00">Survey readiness / compliance</text>
<text text-anchor="middle" x="1107" y="-303" font-family="Arial" font-size="10.00">(CAPA closure time, audit on&#45;time)</text>
<text text-anchor="middle" x="1107" y="-292" font-family="Arial" font-size="10.00">(p15)</text>
</g>
<!-- out_mds -->
<g id="node6" class="node">
<title>out_mds</title>
<path fill="#fff2cc" stroke="#7f6000" d="M993,-323.5C993,-323.5 811,-323.5 811,-323.5 805,-323.5 799,-317.5 799,-311.5 799,-311.5 799,-299.5 799,-299.5 799,-293.5 805,-287.5 811,-287.5 811,-287.5 993,-287.5 993,-287.5 999,-287.5 1005,-293.5 1005,-299.5 1005,-299.5 1005,-311.5 1005,-311.5 1005,-317.5 999,-323.5 993,-323.5"/>
<text text-anchor="middle" x="902" y="-308.5" font-family="Arial" font-size="10.00">MDS/QRP submission rejects &amp; timeliness</text>
<text text-anchor="middle" x="902" y="-297.5" font-family="Arial" font-size="10.00">(p2, p15)</text>
</g>
<!-- out_it -->
<g id="node7" class="node">
<title>out_it</title>
<path fill="#fff2cc" stroke="#7f6000" d="M768.5,-323.5C768.5,-323.5 645.5,-323.5 645.5,-323.5 639.5,-323.5 633.5,-317.5 633.5,-311.5 633.5,-311.5 633.5,-299.5 633.5,-299.5 633.5,-293.5 639.5,-287.5 645.5,-287.5 645.5,-287.5 768.5,-287.5 768.5,-287.5 774.5,-287.5 780.5,-293.5 780.5,-299.5 780.5,-299.5 780.5,-311.5 780.5,-311.5 780.5,-317.5 774.5,-323.5 768.5,-323.5"/>
<text text-anchor="middle" x="707" y="-308.5" font-family="Arial" font-size="10.00">Joiner time&#45;to&#45;access / MTTR</text>
<text text-anchor="middle" x="707" y="-297.5" font-family="Arial" font-size="10.00">(p15)</text>
</g>
<!-- out_inv -->
<g id="node8" class="node">
<title>out_inv</title>
<path fill="#fff2cc" stroke="#7f6000" d="M603,-323.5C603,-323.5 477,-323.5 477,-323.5 471,-323.5 465,-317.5 465,-311.5 465,-311.5 465,-299.5 465,-299.5 465,-293.5 471,-287.5 477,-287.5 477,-287.5 603,-287.5 603,-287.5 609,-287.5 615,-293.5 615,-299.5 615,-299.5 615,-311.5 615,-311.5 615,-317.5 609,-323.5 603,-323.5"/>
<text text-anchor="middle" x="540" y="-308.5" font-family="Arial" font-size="10.00">Stock&#45;outs / waste (par&#45;levels)</text>
<text text-anchor="middle" x="540" y="-297.5" font-family="Arial" font-size="10.00">(p3, p15)</text>
</g>
<!-- out_partd -->
<g id="node9" class="node">
<title>out_partd</title>
<path fill="#fff2cc" stroke="#7f6000" d="M1491,-326C1491,-326 1381,-326 1381,-326 1375,-326 1369,-320 1369,-314 1369,-314 1369,-297 1369,-297 1369,-291 1375,-285 1381,-285 1381,-285 1491,-285 1491,-285 1497,-285 1503,-291 1503,-297 1503,-297 1503,-314 1503,-314 1503,-320 1497,-326 1491,-326"/>
<text text-anchor="middle" x="1436" y="-314" font-family="Arial" font-size="10.00">Part D vs Part A billing risk</text>
<text text-anchor="middle" x="1436" y="-303" font-family="Arial" font-size="10.00">$465.1M (2018–2020)</text>
<text text-anchor="middle" x="1436" y="-292" font-family="Arial" font-size="10.00">(p8)</text>
</g>
<!-- out_docai -->
<g id="node10" class="node">
<title>out_docai</title>
<path fill="#fff2cc" stroke="#7f6000" d="M435,-326C435,-326 325,-326 325,-326 319,-326 313,-320 313,-314 313,-314 313,-297 313,-297 313,-291 319,-285 325,-285 325,-285 435,-285 435,-285 441,-285 447,-291 447,-297 447,-297 447,-314 447,-314 447,-320 441,-326 435,-326"/>
<text text-anchor="middle" x="380" y="-314" font-family="Arial" font-size="10.00">Doc AI labeling needs</text>
<text text-anchor="middle" x="380" y="-303" font-family="Arial" font-size="10.00">~500–2,000 docs per class</text>
<text text-anchor="middle" x="380" y="-292" font-family="Arial" font-size="10.00">(p12)</text>
</g>
<!-- uc_adr -->
<g id="node11" class="node">
<title>uc_adr</title>
<path fill="#d9e1f2" stroke="#2f5597" d="M1420.5,-240C1420.5,-240 1211.5,-240 1211.5,-240 1205.5,-240 1199.5,-234 1199.5,-228 1199.5,-228 1199.5,-216 1199.5,-216 1199.5,-210 1205.5,-204 1211.5,-204 1211.5,-204 1420.5,-204 1420.5,-204 1426.5,-204 1432.5,-210 1432.5,-216 1432.5,-216 1432.5,-228 1432.5,-228 1432.5,-234 1426.5,-240 1420.5,-240"/>
<text text-anchor="middle" x="1316" y="-225" font-family="Arial" font-size="10.00">Automate ADR/CERT response packet assembly</text>
<text text-anchor="middle" x="1316" y="-214" font-family="Arial" font-size="10.00">(Rank 1) (p2)</text>
</g>
<!-- uc_adr&#45;&gt;out_denials -->
<g id="edge65" class="edge">
<title>uc_adr&#45;&gt;out_denials</title>
<path fill="none" stroke="#666666" d="M1308.37,-240.28C1303.49,-251.32 1297.07,-265.85 1291.58,-278.29"/>
<polygon fill="#666666" stroke="#666666" points="1289.22,-277.56 1288.63,-284.95 1293.7,-279.54 1289.22,-277.56"/>
</g>
<!-- uc_adm -->
<g id="node12" class="node">
<title>uc_adm</title>
<path fill="#d9e1f2" stroke="#2f5597" d="M2305.5,-240C2305.5,-240 2124.5,-240 2124.5,-240 2118.5,-240 2112.5,-234 2112.5,-228 2112.5,-228 2112.5,-216 2112.5,-216 2112.5,-210 2118.5,-204 2124.5,-204 2124.5,-204 2305.5,-204 2305.5,-204 2311.5,-204 2317.5,-210 2317.5,-216 2317.5,-216 2317.5,-228 2317.5,-228 2317.5,-234 2311.5,-240 2305.5,-240"/>
<text text-anchor="middle" x="2215" y="-225" font-family="Arial" font-size="10.00">Admissions packet + eligibility + bed mgmt</text>
<text text-anchor="middle" x="2215" y="-214" font-family="Arial" font-size="10.00">(Rank 2) (p2)</text>
</g>
<!-- uc_adm&#45;&gt;out_admit -->
<g id="edge66" class="edge">
<title>uc_adm&#45;&gt;out_admit</title>
<path fill="none" stroke="#666666" d="M2149.18,-240.09C2100.9,-252.62 2035.02,-269.71 1983.27,-283.15"/>
<polygon fill="#666666" stroke="#666666" points="1982.55,-280.8 1976.39,-284.93 1983.78,-285.54 1982.55,-280.8"/>
</g>
<!-- uc_ap -->
<g id="node13" class="node">
<title>uc_ap</title>
<path fill="#d9e1f2" stroke="#2f5597" d="M2082.5,-240C2082.5,-240 1871.5,-240 1871.5,-240 1865.5,-240 1859.5,-234 1859.5,-228 1859.5,-228 1859.5,-216 1859.5,-216 1859.5,-210 1865.5,-204 1871.5,-204 1871.5,-204 2082.5,-204 2082.5,-204 2088.5,-204 2094.5,-210 2094.5,-216 2094.5,-216 2094.5,-228 2094.5,-228 2094.5,-234 2088.5,-240 2082.5,-240"/>
<text text-anchor="middle" x="1977" y="-225" font-family="Arial" font-size="10.00">AP invoice capture + 2/3&#45;way match + onboarding</text>
<text text-anchor="middle" x="1977" y="-214" font-family="Arial" font-size="10.00">(Rank 3) (p2)</text>
</g>
<!-- uc_ap&#45;&gt;out_ap -->
<g id="edge67" class="edge">
<title>uc_ap&#45;&gt;out_ap</title>
<path fill="none" stroke="#666666" d="M1889.99,-240.04C1854.07,-247.22 1819.84,-254.31 1816,-256 1802.12,-262.1 1788.29,-271.43 1776.83,-280.27"/>
<polygon fill="#666666" stroke="#666666" points="1775.04,-278.57 1771.07,-284.83 1778.08,-282.41 1775.04,-278.57"/>
</g>
<!-- uc_staff -->
<g id="node14" class="node">
<title>uc_staff</title>
<path fill="#d9e1f2" stroke="#2f5597" d="M1829,-240C1829,-240 1631,-240 1631,-240 1625,-240 1619,-234 1619,-228 1619,-228 1619,-216 1619,-216 1619,-210 1625,-204 1631,-204 1631,-204 1829,-204 1829,-204 1835,-204 1841,-210 1841,-216 1841,-216 1841,-228 1841,-228 1841,-234 1835,-240 1829,-240"/>
<text text-anchor="middle" x="1730" y="-225" font-family="Arial" font-size="10.00">Staffing call&#45;out → auto&#45;fill + PBJ reconciliation</text>
<text text-anchor="middle" x="1730" y="-214" font-family="Arial" font-size="10.00">(Rank 4) (p2)</text>
</g>
<!-- uc_staff&#45;&gt;out_staff -->
<g id="edge68" class="edge">
<title>uc_staff&#45;&gt;out_staff</title>
<path fill="none" stroke="#666666" d="M1702.12,-240.09C1682.71,-251.98 1656.58,-267.99 1635.22,-281.08"/>
<polygon fill="#666666" stroke="#666666" points="1633.74,-279.11 1629.05,-284.86 1636.3,-283.29 1633.74,-279.11"/>
</g>
<!-- uc_survey -->
<g id="node15" class="node">
<title>uc_survey</title>
<path fill="#d9e1f2" stroke="#2f5597" d="M1169.5,-240C1169.5,-240 972.5,-240 972.5,-240 966.5,-240 960.5,-234 960.5,-228 960.5,-228 960.5,-216 960.5,-216 960.5,-210 966.5,-204 972.5,-204 972.5,-204 1169.5,-204 1169.5,-204 1175.5,-204 1181.5,-210 1181.5,-216 1181.5,-216 1181.5,-228 1181.5,-228 1181.5,-234 1175.5,-240 1169.5,-240"/>
<text text-anchor="middle" x="1071" y="-225" font-family="Arial" font-size="10.00">Survey readiness evidence locker + audit trails</text>
<text text-anchor="middle" x="1071" y="-214" font-family="Arial" font-size="10.00">(Rank 5) (p2)</text>
</g>
<!-- uc_survey&#45;&gt;out_survey -->
<g id="edge69" class="edge">
<title>uc_survey&#45;&gt;out_survey</title>
<path fill="none" stroke="#666666" d="M1078.63,-240.28C1083.51,-251.32 1089.93,-265.85 1095.42,-278.29"/>
<polygon fill="#666666" stroke="#666666" points="1093.3,-279.54 1098.37,-284.95 1097.78,-277.56 1093.3,-279.54"/>
</g>
<!-- uc_mds -->
<g id="node16" class="node">
<title>uc_mds</title>
<path fill="#d9e1f2" stroke="#2f5597" d="M930.5,-240C930.5,-240 749.5,-240 749.5,-240 743.5,-240 737.5,-234 737.5,-228 737.5,-228 737.5,-216 737.5,-216 737.5,-210 743.5,-204 749.5,-204 749.5,-204 930.5,-204 930.5,-204 936.5,-204 942.5,-210 942.5,-216 942.5,-216 942.5,-228 942.5,-228 942.5,-234 936.5,-240 930.5,-240"/>
<text text-anchor="middle" x="840" y="-225" font-family="Arial" font-size="10.00">MDS support + QRP submission validation</text>
<text text-anchor="middle" x="840" y="-214" font-family="Arial" font-size="10.00">(Rank 6) (p2)</text>
</g>
<!-- uc_mds&#45;&gt;out_mds -->
<g id="edge70" class="edge">
<title>uc_mds&#45;&gt;out_mds</title>
<path fill="none" stroke="#666666" d="M853.15,-240.28C862.27,-252.28 874.53,-268.39 884.48,-281.47"/>
<polygon fill="#666666" stroke="#666666" points="882.68,-283.15 888.87,-287.24 886.58,-280.19 882.68,-283.15"/>
</g>
<!-- uc_it -->
<g id="node17" class="node">
<title>uc_it</title>
<path fill="#d9e1f2" stroke="#2f5597" d="M707.5,-240C707.5,-240 536.5,-240 536.5,-240 530.5,-240 524.5,-234 524.5,-228 524.5,-228 524.5,-216 524.5,-216 524.5,-210 530.5,-204 536.5,-204 536.5,-204 707.5,-204 707.5,-204 713.5,-204 719.5,-210 719.5,-216 719.5,-216 719.5,-228 719.5,-228 719.5,-234 713.5,-240 707.5,-240"/>
<text text-anchor="middle" x="622" y="-225" font-family="Arial" font-size="10.00">IT access provisioning + access reviews</text>
<text text-anchor="middle" x="622" y="-214" font-family="Arial" font-size="10.00">(Rank 7) (p3)</text>
</g>
<!-- uc_it&#45;&gt;out_it -->
<g id="edge71" class="edge">
<title>uc_it&#45;&gt;out_it</title>
<path fill="none" stroke="#666666" d="M640.03,-240.28C652.76,-252.49 669.94,-268.97 683.71,-282.17"/>
<polygon fill="#666666" stroke="#666666" points="682.25,-284.16 689,-287.24 685.64,-280.63 682.25,-284.16"/>
</g>
<!-- uc_par -->
<g id="node18" class="node">
<title>uc_par</title>
<path fill="#d9e1f2" stroke="#2f5597" d="M494,-240C494,-240 300,-240 300,-240 294,-240 288,-234 288,-228 288,-228 288,-216 288,-216 288,-210 294,-204 300,-204 300,-204 494,-204 494,-204 500,-204 506,-210 506,-216 506,-216 506,-228 506,-228 506,-234 500,-240 494,-240"/>
<text text-anchor="middle" x="397" y="-225" font-family="Arial" font-size="10.00">Procurement par&#45;level auto&#45;reorder + lot/expiry</text>
<text text-anchor="middle" x="397" y="-214" font-family="Arial" font-size="10.00">(Rank 8) (p3)</text>
</g>
<!-- uc_par&#45;&gt;out_inv -->
<g id="edge72" class="edge">
<title>uc_par&#45;&gt;out_inv</title>
<path fill="none" stroke="#666666" d="M427.67,-240.05C436.8,-245.15 446.82,-250.78 456,-256 471.88,-265.03 489.39,-275.12 504.3,-283.74"/>
<polygon fill="#666666" stroke="#666666" points="503.23,-285.95 510.51,-287.34 505.68,-281.71 503.23,-285.95"/>
</g>
<!-- uc_partd -->
<g id="node19" class="node">
<title>uc_partd</title>
<path fill="#d9e1f2" stroke="#2f5597" d="M1589,-240C1589,-240 1463,-240 1463,-240 1457,-240 1451,-234 1451,-228 1451,-228 1451,-216 1451,-216 1451,-210 1457,-204 1463,-204 1463,-204 1589,-204 1589,-204 1595,-204 1601,-210 1601,-216 1601,-216 1601,-228 1601,-228 1601,-234 1595,-240 1589,-240"/>
<text text-anchor="middle" x="1526" y="-225" font-family="Arial" font-size="10.00">Part D vs Part A billing checks</text>
<text text-anchor="middle" x="1526" y="-214" font-family="Arial" font-size="10.00">(p8)</text>
</g>
<!-- uc_partd&#45;&gt;out_partd -->
<g id="edge73" class="edge">
<title>uc_partd&#45;&gt;out_partd</title>
<path fill="none" stroke="#666666" d="M1506.91,-240.28C1494.16,-251.83 1477.19,-267.2 1463.05,-280"/>
<polygon fill="#666666" stroke="#666666" points="1461.13,-278.44 1457.59,-284.95 1464.42,-282.07 1461.13,-278.44"/>
</g>
<!-- uc_docai -->
<g id="node20" class="node">
<title>uc_docai</title>
<path fill="#d9e1f2" stroke="#2f5597" d="M258,-240C258,-240 28,-240 28,-240 22,-240 16,-234 16,-228 16,-228 16,-216 16,-216 16,-210 22,-204 28,-204 28,-204 258,-204 258,-204 264,-204 270,-210 270,-216 270,-216 270,-228 270,-228 270,-234 264,-240 258,-240"/>
<text text-anchor="middle" x="143" y="-225" font-family="Arial" font-size="10.00">Document understanding (classify/route inbound docs)</text>
<text text-anchor="middle" x="143" y="-214" font-family="Arial" font-size="10.00">(p12)</text>
</g>
<!-- uc_docai&#45;&gt;out_docai -->
<g id="edge74" class="edge">
<title>uc_docai&#45;&gt;out_docai</title>
<path fill="none" stroke="#666666" d="M192.68,-240.09C228.61,-252.44 277.45,-269.24 316.25,-282.58"/>
<polygon fill="#666666" stroke="#666666" points="315.47,-284.9 322.88,-284.86 317.06,-280.27 315.47,-284.9"/>
</g>
<!-- d_adm -->
<g id="node21" class="node">
<title>d_adm</title>
<path fill="#e2efda" stroke="#375623" d="M1674,-159C1674,-159 1594,-159 1594,-159 1588,-159 1582,-153 1582,-147 1582,-147 1582,-135 1582,-135 1582,-129 1588,-123 1594,-123 1594,-123 1674,-123 1674,-123 1680,-123 1686,-129 1686,-135 1686,-135 1686,-147 1686,-147 1686,-153 1680,-159 1674,-159"/>
<text text-anchor="middle" x="1634" y="-144" font-family="Arial" font-size="10.00">Admissions / Intake</text>
<text text-anchor="middle" x="1634" y="-133" font-family="Arial" font-size="10.00">(p4)</text>
</g>
<!-- d_adm&#45;&gt;uc_adm -->
<g id="edge56" class="edge">
<title>d_adm&#45;&gt;uc_adm</title>
<path fill="none" stroke="#666666" d="M1686.09,-143.54C1791.32,-147.01 2025.88,-156.59 2104,-175 2128.55,-180.79 2154.67,-191.37 2175.4,-200.93"/>
<polygon fill="#666666" stroke="#666666" points="2174.56,-203.24 2181.94,-203.99 2176.64,-198.8 2174.56,-203.24"/>
</g>
<!-- d_rcm -->
<g id="node22" class="node">
<title>d_rcm</title>
<path fill="#e2efda" stroke="#375623" d="M1303,-159C1303,-159 1211,-159 1211,-159 1205,-159 1199,-153 1199,-147 1199,-147 1199,-135 1199,-135 1199,-129 1205,-123 1211,-123 1211,-123 1303,-123 1303,-123 1309,-123 1315,-129 1315,-135 1315,-135 1315,-147 1315,-147 1315,-153 1309,-159 1303,-159"/>
<text text-anchor="middle" x="1257" y="-144" font-family="Arial" font-size="10.00">Revenue Cycle (RCM)</text>
<text text-anchor="middle" x="1257" y="-133" font-family="Arial" font-size="10.00">(p8–p9)</text>
</g>
<!-- d_rcm&#45;&gt;uc_adr -->
<g id="edge55" class="edge">
<title>d_rcm&#45;&gt;uc_adr</title>
<path fill="none" stroke="#666666" d="M1269.8,-159.14C1278.31,-170.53 1289.57,-185.61 1298.85,-198.04"/>
<polygon fill="#666666" stroke="#666666" points="1297.07,-199.75 1303.22,-203.89 1301,-196.82 1297.07,-199.75"/>
</g>
<!-- d_rcm&#45;&gt;uc_partd -->
<g id="edge63" class="edge">
<title>d_rcm&#45;&gt;uc_partd</title>
<path fill="none" stroke="#666666" d="M1297.8,-159.12C1306.63,-162.23 1316.02,-165.08 1325,-167 1375.97,-177.88 1391.98,-160.36 1442,-175 1460.71,-180.47 1479.9,-190.58 1495.21,-199.93"/>
<polygon fill="#666666" stroke="#666666" points="1494.29,-202.25 1501.52,-203.88 1496.88,-198.09 1494.29,-202.25"/>
</g>
<!-- d_fin -->
<g id="node23" class="node">
<title>d_fin</title>
<path fill="#e2efda" stroke="#375623" d="M1551.5,-159C1551.5,-159 1470.5,-159 1470.5,-159 1464.5,-159 1458.5,-153 1458.5,-147 1458.5,-147 1458.5,-135 1458.5,-135 1458.5,-129 1464.5,-123 1470.5,-123 1470.5,-123 1551.5,-123 1551.5,-123 1557.5,-123 1563.5,-129 1563.5,-135 1563.5,-135 1563.5,-147 1563.5,-147 1563.5,-153 1557.5,-159 1551.5,-159"/>
<text text-anchor="middle" x="1511" y="-144" font-family="Arial" font-size="10.00">Finance Back Office</text>
<text text-anchor="middle" x="1511" y="-133" font-family="Arial" font-size="10.00">(p7–p8)</text>
</g>
<!-- d_fin&#45;&gt;uc_ap -->
<g id="edge57" class="edge">
<title>d_fin&#45;&gt;uc_ap</title>
<path fill="none" stroke="#666666" d="M1547.05,-159.02C1555.39,-162.26 1564.37,-165.2 1573,-167 1633.28,-179.6 1789.51,-163.48 1850,-175 1878.53,-180.43 1909.18,-191.38 1933.22,-201.23"/>
<polygon fill="#666666" stroke="#666666" points="1932.42,-203.54 1939.82,-203.97 1934.3,-199.02 1932.42,-203.54"/>
</g>
<!-- d_staff -->
<g id="node24" class="node">
<title>d_staff</title>
<path fill="#e2efda" stroke="#375623" d="M1428.5,-159C1428.5,-159 1345.5,-159 1345.5,-159 1339.5,-159 1333.5,-153 1333.5,-147 1333.5,-147 1333.5,-135 1333.5,-135 1333.5,-129 1339.5,-123 1345.5,-123 1345.5,-123 1428.5,-123 1428.5,-123 1434.5,-123 1440.5,-129 1440.5,-135 1440.5,-135 1440.5,-147 1440.5,-147 1440.5,-153 1434.5,-159 1428.5,-159"/>
<text text-anchor="middle" x="1387" y="-144" font-family="Arial" font-size="10.00">Staffing / Scheduling</text>
<text text-anchor="middle" x="1387" y="-133" font-family="Arial" font-size="10.00">(p6–p7)</text>
</g>
<!-- d_staff&#45;&gt;uc_staff -->
<g id="edge58" class="edge">
<title>d_staff&#45;&gt;uc_staff</title>
<path fill="none" stroke="#666666" d="M1424.01,-159.01C1432.4,-162.21 1441.38,-165.13 1450,-167 1519.58,-182.11 1540.33,-160.3 1610,-175 1636.72,-180.64 1665.33,-191.4 1687.91,-201.1"/>
<polygon fill="#666666" stroke="#666666" points="1687.01,-203.39 1694.41,-203.94 1688.97,-198.89 1687.01,-203.39"/>
</g>
<!-- d_comp -->
<g id="node25" class="node">
<title>d_comp</title>
<path fill="#e2efda" stroke="#375623" d="M1168.5,-159C1168.5,-159 1091.5,-159 1091.5,-159 1085.5,-159 1079.5,-153 1079.5,-147 1079.5,-147 1079.5,-135 1079.5,-135 1079.5,-129 1085.5,-123 1091.5,-123 1091.5,-123 1168.5,-123 1168.5,-123 1174.5,-123 1180.5,-129 1180.5,-135 1180.5,-135 1180.5,-147 1180.5,-147 1180.5,-153 1174.5,-159 1168.5,-159"/>
<text text-anchor="middle" x="1130" y="-144" font-family="Arial" font-size="10.00">Compliance / QAPI</text>
<text text-anchor="middle" x="1130" y="-133" font-family="Arial" font-size="10.00">(p10)</text>
</g>
<!-- d_comp&#45;&gt;uc_survey -->
<g id="edge59" class="edge">
<title>d_comp&#45;&gt;uc_survey</title>
<path fill="none" stroke="#666666" d="M1117.2,-159.14C1108.69,-170.53 1097.43,-185.61 1088.15,-198.04"/>
<polygon fill="#666666" stroke="#666666" points="1086,-196.82 1083.78,-203.89 1089.93,-199.75 1086,-196.82"/>
</g>
<!-- d_clin -->
<g id="node26" class="node">
<title>d_clin</title>
<path fill="#e2efda" stroke="#375623" d="M1049.5,-159C1049.5,-159 924.5,-159 924.5,-159 918.5,-159 912.5,-153 912.5,-147 912.5,-147 912.5,-135 912.5,-135 912.5,-129 918.5,-123 924.5,-123 924.5,-123 1049.5,-123 1049.5,-123 1055.5,-123 1061.5,-129 1061.5,-135 1061.5,-135 1061.5,-147 1061.5,-147 1061.5,-153 1055.5,-159 1049.5,-159"/>
<text text-anchor="middle" x="987" y="-144" font-family="Arial" font-size="10.00">Clinical Documentation / MDS</text>
<text text-anchor="middle" x="987" y="-133" font-family="Arial" font-size="10.00">(p5)</text>
</g>
<!-- d_clin&#45;&gt;uc_mds -->
<g id="edge60" class="edge">
<title>d_clin&#45;&gt;uc_mds</title>
<path fill="none" stroke="#666666" d="M955.1,-159.14C932.47,-171.31 901.99,-187.69 878.08,-200.54"/>
<polygon fill="#666666" stroke="#666666" points="876.84,-198.42 871.83,-203.89 879.16,-202.74 876.84,-198.42"/>
</g>
<!-- d_it -->
<g id="node27" class="node">
<title>d_it</title>
<path fill="#e2efda" stroke="#375623" d="M882,-159C882,-159 814,-159 814,-159 808,-159 802,-153 802,-147 802,-147 802,-135 802,-135 802,-129 808,-123 814,-123 814,-123 882,-123 882,-123 888,-123 894,-129 894,-135 894,-135 894,-147 894,-147 894,-153 888,-159 882,-159"/>
<text text-anchor="middle" x="848" y="-144" font-family="Arial" font-size="10.00">IT Ops / Security</text>
<text text-anchor="middle" x="848" y="-133" font-family="Arial" font-size="10.00">(p11)</text>
</g>
<!-- d_it&#45;&gt;uc_it -->
<g id="edge61" class="edge">
<title>d_it&#45;&gt;uc_it</title>
<path fill="none" stroke="#666666" d="M814.57,-159.12C807.59,-162.15 800.17,-164.97 793,-167 765.42,-174.8 756.66,-167.49 729,-175 706.03,-181.24 681.57,-191.46 661.84,-200.69"/>
<polygon fill="#666666" stroke="#666666" points="660.61,-198.56 655.34,-203.77 662.71,-202.99 660.61,-198.56"/>
</g>
<!-- d_proc -->
<g id="node28" class="node">
<title>d_proc</title>
<path fill="#e2efda" stroke="#375623" d="M772,-159C772,-159 674,-159 674,-159 668,-159 662,-153 662,-147 662,-147 662,-135 662,-135 662,-129 668,-123 674,-123 674,-123 772,-123 772,-123 778,-123 784,-129 784,-135 784,-135 784,-147 784,-147 784,-153 778,-159 772,-159"/>
<text text-anchor="middle" x="723" y="-144" font-family="Arial" font-size="10.00">Procurement / Inventory</text>
<text text-anchor="middle" x="723" y="-133" font-family="Arial" font-size="10.00">(p9)</text>
</g>
<!-- d_proc&#45;&gt;uc_par -->
<g id="edge62" class="edge">
<title>d_proc&#45;&gt;uc_par</title>
<path fill="none" stroke="#666666" d="M681.35,-159.05C672.15,-162.2 662.36,-165.1 653,-167 593.23,-179.16 575.61,-162.07 516,-175 489.6,-180.73 461.35,-191.44 439,-201.08"/>
<polygon fill="#666666" stroke="#666666" points="437.99,-198.85 432.56,-203.9 439.95,-203.34 437.99,-198.85"/>
</g>
<!-- d_found -->
<g id="node29" class="node">
<title>d_found</title>
<path fill="#e2efda" stroke="#375623" d="M632,-159C632,-159 480,-159 480,-159 474,-159 468,-153 468,-147 468,-147 468,-135 468,-135 468,-129 474,-123 480,-123 480,-123 632,-123 632,-123 638,-123 644,-129 644,-135 644,-135 644,-147 644,-147 644,-153 638,-159 632,-159"/>
<text text-anchor="middle" x="556" y="-144" font-family="Arial" font-size="10.00">Foundations (Document Automation)</text>
<text text-anchor="middle" x="556" y="-133" font-family="Arial" font-size="10.00">(p12–p14)</text>
</g>
<!-- d_found&#45;&gt;uc_docai -->
<g id="edge64" class="edge">
<title>d_found&#45;&gt;uc_docai</title>
<path fill="none" stroke="#666666" d="M467.88,-147.8C413.05,-152.57 341.35,-160.9 279,-175 249.76,-181.61 217.99,-192.16 192.5,-201.49"/>
<polygon fill="#666666" stroke="#666666" points="191.55,-199.23 185.83,-203.96 193.25,-203.83 191.55,-199.23"/>
</g>
<!-- f_integ -->
<g id="node30" class="node">
<title>f_integ</title>
<path fill="#fce4d6" stroke="#843c0c" d="M843.5,-78C843.5,-78 708.5,-78 708.5,-78 702.5,-78 696.5,-72 696.5,-66 696.5,-66 696.5,-49 696.5,-49 696.5,-43 702.5,-37 708.5,-37 708.5,-37 843.5,-37 843.5,-37 849.5,-37 855.5,-43 855.5,-49 855.5,-49 855.5,-66 855.5,-66 855.5,-72 849.5,-78 843.5,-78"/>
<text text-anchor="middle" x="776" y="-66" font-family="Arial" font-size="10.00">Integration patterns</text>
<text text-anchor="middle" x="776" y="-55" font-family="Arial" font-size="10.00">(API/HL7/FHIR/EDI/SFTP/RPA)</text>
<text text-anchor="middle" x="776" y="-44" font-family="Arial" font-size="10.00">(p14)</text>
</g>
<!-- f_integ&#45;&gt;d_adm -->
<g id="edge1" class="edge">
<title>f_integ&#45;&gt;d_adm</title>
<path fill="none" stroke="#666666" d="M830.49,-78.04C841.76,-81.31 853.66,-84.22 865,-86 903.86,-92.09 1535.77,-81.3 1573,-94 1587.54,-98.96 1601.41,-108.85 1612.24,-118.19"/>
<polygon fill="#666666" stroke="#666666" points="1610.76,-120.15 1617.61,-122.99 1614.03,-116.5 1610.76,-120.15"/>
</g>
<!-- f_integ&#45;&gt;d_rcm -->
<g id="edge2" class="edge">
<title>f_integ&#45;&gt;d_rcm</title>
<path fill="none" stroke="#666666" d="M830.98,-78.06C842.11,-81.29 853.83,-84.17 865,-86 900.65,-91.83 1155.63,-82.87 1190,-94 1205.57,-99.04 1220.79,-108.96 1232.78,-118.3"/>
<polygon fill="#666666" stroke="#666666" points="1231.4,-120.34 1238.39,-122.82 1234.47,-116.52 1231.4,-120.34"/>
</g>
<!-- f_integ&#45;&gt;d_fin -->
<g id="edge3" class="edge">
<title>f_integ&#45;&gt;d_fin</title>
<path fill="none" stroke="#666666" d="M830.49,-78.02C841.76,-81.3 853.66,-84.21 865,-86 897.1,-91.07 1419.25,-83.47 1450,-94 1464.43,-98.94 1478.2,-108.72 1488.99,-118"/>
<polygon fill="#666666" stroke="#666666" points="1487.5,-119.95 1494.35,-122.77 1490.76,-116.29 1487.5,-119.95"/>
</g>
<!-- f_integ&#45;&gt;d_staff -->
<g id="edge4" class="edge">
<title>f_integ&#45;&gt;d_staff</title>
<path fill="none" stroke="#666666" d="M830.97,-78.13C842.1,-81.35 853.82,-84.21 865,-86 915.37,-94.05 1275.65,-77.76 1324,-94 1338.76,-98.96 1352.97,-108.74 1364.14,-118.01"/>
<polygon fill="#666666" stroke="#666666" points="1362.79,-120.08 1369.7,-122.79 1365.99,-116.37 1362.79,-120.08"/>
</g>
<!-- f_integ&#45;&gt;d_comp -->
<g id="edge5" class="edge">
<title>f_integ&#45;&gt;d_comp</title>
<path fill="none" stroke="#666666" d="M831.48,-78.07C842.47,-81.26 854,-84.12 865,-86 910.16,-93.72 1027.97,-78.27 1071,-94 1084.92,-99.09 1098.15,-108.78 1108.55,-117.96"/>
<polygon fill="#666666" stroke="#666666" points="1106.89,-119.77 1113.71,-122.69 1110.2,-116.15 1106.89,-119.77"/>
</g>
<!-- f_integ&#45;&gt;d_clin -->
<g id="edge6" class="edge">
<title>f_integ&#45;&gt;d_clin</title>
<path fill="none" stroke="#666666" d="M836.59,-78.04C846.06,-80.86 855.76,-83.61 865,-86 881.71,-90.33 886.81,-88.01 903,-94 920.74,-100.56 939.3,-110.37 954.45,-119.25"/>
<polygon fill="#666666" stroke="#666666" points="953.45,-121.51 960.72,-122.99 955.96,-117.3 953.45,-121.51"/>
</g>
<!-- f_integ&#45;&gt;d_it -->
<g id="edge7" class="edge">
<title>f_integ&#45;&gt;d_it</title>
<path fill="none" stroke="#666666" d="M793.43,-78.23C803.9,-90.08 817.25,-105.19 828.12,-117.5"/>
<polygon fill="#666666" stroke="#666666" points="826.45,-119.31 832.93,-122.94 830.13,-116.07 826.45,-119.31"/>
</g>
<!-- f_integ&#45;&gt;d_proc -->
<g id="edge8" class="edge">
<title>f_integ&#45;&gt;d_proc</title>
<path fill="none" stroke="#666666" d="M763.17,-78.23C755.6,-89.86 745.99,-104.64 738.07,-116.83"/>
<polygon fill="#666666" stroke="#666666" points="735.86,-115.73 734.1,-122.94 739.97,-118.4 735.86,-115.73"/>
</g>
<!-- f_integ&#45;&gt;d_found -->
<g id="edge9" class="edge">
<title>f_integ&#45;&gt;d_found</title>
<path fill="none" stroke="#666666" d="M715.59,-78.06C706.38,-80.84 696.96,-83.58 688,-86 672.6,-90.16 668.08,-88.77 653,-94 632.93,-100.96 611.49,-110.84 593.9,-119.67"/>
<polygon fill="#666666" stroke="#666666" points="592.73,-117.51 587.59,-122.86 594.95,-121.88 592.73,-117.51"/>
</g>
<!-- f_mdm -->
<g id="node31" class="node">
<title>f_mdm</title>
<path fill="#fce4d6" stroke="#843c0c" d="M666.5,-78C666.5,-78 529.5,-78 529.5,-78 523.5,-78 517.5,-72 517.5,-66 517.5,-66 517.5,-49 517.5,-49 517.5,-43 523.5,-37 529.5,-37 529.5,-37 666.5,-37 666.5,-37 672.5,-37 678.5,-43 678.5,-49 678.5,-49 678.5,-66 678.5,-66 678.5,-72 672.5,-78 666.5,-78"/>
<text text-anchor="middle" x="598" y="-66" font-family="Arial" font-size="10.00">Master data domains</text>
<text text-anchor="middle" x="598" y="-55" font-family="Arial" font-size="10.00">(resident/payer/employee/vendor)</text>
<text text-anchor="middle" x="598" y="-44" font-family="Arial" font-size="10.00">(p14)</text>
</g>
<!-- f_mdm&#45;&gt;d_adm -->
<g id="edge10" class="edge">
<title>f_mdm&#45;&gt;d_adm</title>
<path fill="none" stroke="#666666" d="M653.11,-78.06C664.51,-81.33 676.54,-84.23 688,-86 736.6,-93.48 1526.45,-78.18 1573,-94 1587.54,-98.94 1601.41,-108.83 1612.24,-118.17"/>
<polygon fill="#666666" stroke="#666666" points="1610.76,-120.14 1617.61,-122.98 1614.03,-116.49 1610.76,-120.14"/>
</g>
<!-- f_mdm&#45;&gt;d_rcm -->
<g id="edge11" class="edge">
<title>f_mdm&#45;&gt;d_rcm</title>
<path fill="none" stroke="#666666" d="M653.6,-78.14C664.85,-81.36 676.7,-84.22 688,-86 743.11,-94.68 1136.85,-77.05 1190,-94 1205.71,-99.01 1221.04,-109.04 1233.06,-118.45"/>
<polygon fill="#666666" stroke="#666666" points="1231.7,-120.5 1238.69,-123 1234.79,-116.69 1231.7,-120.5"/>
</g>
<!-- f_mdm&#45;&gt;d_fin -->
<g id="edge12" class="edge">
<title>f_mdm&#45;&gt;d_fin</title>
<path fill="none" stroke="#666666" d="M653.11,-78.05C664.51,-81.32 676.54,-84.23 688,-86 729.84,-92.47 1409.93,-80.35 1450,-94 1464.54,-98.95 1478.41,-108.84 1489.24,-118.18"/>
<polygon fill="#666666" stroke="#666666" points="1487.76,-120.15 1494.61,-122.99 1491.03,-116.49 1487.76,-120.15"/>
</g>
<!-- f_mdm&#45;&gt;d_staff -->
<g id="edge13" class="edge">
<title>f_mdm&#45;&gt;d_staff</title>
<path fill="none" stroke="#666666" d="M653.11,-78.03C664.51,-81.3 676.54,-84.21 688,-86 722.91,-91.44 1290.48,-82.83 1324,-94 1338.88,-98.96 1353.19,-108.84 1364.4,-118.19"/>
<polygon fill="#666666" stroke="#666666" points="1363.07,-120.27 1369.97,-122.99 1366.27,-116.56 1363.07,-120.27"/>
</g>
<!-- f_mdm&#45;&gt;d_comp -->
<g id="edge14" class="edge">
<title>f_mdm&#45;&gt;d_comp</title>
<path fill="none" stroke="#666666" d="M653.61,-78.09C664.86,-81.32 676.71,-84.19 688,-86 730.03,-92.73 1030.89,-79.74 1071,-94 1084.96,-98.96 1098.2,-108.64 1108.59,-117.85"/>
<polygon fill="#666666" stroke="#666666" points="1106.93,-119.65 1113.75,-122.59 1110.25,-116.05 1106.93,-119.65"/>
</g>
<!-- f_mdm&#45;&gt;d_clin -->
<g id="edge15" class="edge">
<title>f_mdm&#45;&gt;d_clin</title>
<path fill="none" stroke="#666666" d="M654.11,-78.09C665.22,-81.27 676.88,-84.13 688,-86 735.15,-93.94 856.91,-81.29 903,-94 921.93,-99.22 941.28,-109.42 956.63,-118.89"/>
<polygon fill="#666666" stroke="#666666" points="955.72,-121.21 962.94,-122.88 958.34,-117.07 955.72,-121.21"/>
</g>
<!-- f_mdm&#45;&gt;d_it -->
<g id="edge16" class="edge">
<title>f_mdm&#45;&gt;d_it</title>
<path fill="none" stroke="#666666" d="M655.14,-78.02C665.95,-81.12 677.24,-83.97 688,-86 711,-90.33 771.32,-85.18 793,-94 806.04,-99.3 818.29,-108.89 827.9,-117.95"/>
<polygon fill="#666666" stroke="#666666" points="826.24,-119.76 832.96,-122.9 829.67,-116.25 826.24,-119.76"/>
</g>
<!-- f_mdm&#45;&gt;d_proc -->
<g id="edge17" class="edge">
<title>f_mdm&#45;&gt;d_proc</title>
<path fill="none" stroke="#666666" d="M628.58,-78.17C636.54,-83.31 645.1,-88.85 653,-94 665.45,-102.11 679.12,-111.07 691.04,-118.92"/>
<polygon fill="#666666" stroke="#666666" points="689.91,-121.11 697.1,-122.91 692.6,-117.01 689.91,-121.11"/>
</g>
<!-- f_mdm&#45;&gt;d_found -->
<g id="edge18" class="edge">
<title>f_mdm&#45;&gt;d_found</title>
<path fill="none" stroke="#666666" d="M587.83,-78.23C581.89,-89.76 574.36,-104.37 568.11,-116.49"/>
<polygon fill="#666666" stroke="#666666" points="565.82,-115.59 564.79,-122.94 570.18,-117.84 565.82,-115.59"/>
</g>
<!-- f_logs -->
<g id="node32" class="node">
<title>f_logs</title>
<path fill="#fce4d6" stroke="#843c0c" d="M1722,-75.5C1722,-75.5 1542,-75.5 1542,-75.5 1536,-75.5 1530,-69.5 1530,-63.5 1530,-63.5 1530,-51.5 1530,-51.5 1530,-45.5 1536,-39.5 1542,-39.5 1542,-39.5 1722,-39.5 1722,-39.5 1728,-39.5 1734,-45.5 1734,-51.5 1734,-51.5 1734,-63.5 1734,-63.5 1734,-69.5 1728,-75.5 1722,-75.5"/>
<text text-anchor="middle" x="1632" y="-60.5" font-family="Arial" font-size="10.00">Immutable action logs + evidence retention</text>
<text text-anchor="middle" x="1632" y="-49.5" font-family="Arial" font-size="10.00">(p14)</text>
</g>
<!-- f_logs&#45;&gt;d_adm -->
<g id="edge19" class="edge">
<title>f_logs&#45;&gt;d_adm</title>
<path fill="none" stroke="#666666" d="M1632.42,-75.78C1632.71,-87.35 1633.09,-102.73 1633.4,-115.54"/>
<polygon fill="#666666" stroke="#666666" points="1630.96,-115.8 1633.58,-122.74 1635.85,-115.68 1630.96,-115.8"/>
</g>
<!-- f_logs&#45;&gt;d_rcm -->
<g id="edge20" class="edge">
<title>f_logs&#45;&gt;d_rcm</title>
<path fill="none" stroke="#666666" d="M1572.81,-75.51C1556.19,-79.65 1538,-83.57 1521,-86 1477.85,-92.16 1366.41,-80.38 1325,-94 1309.29,-99.17 1293.86,-109.1 1281.67,-118.41"/>
<polygon fill="#666666" stroke="#666666" points="1279.94,-116.66 1275.96,-122.91 1282.98,-120.5 1279.94,-116.66"/>
</g>
<!-- f_logs&#45;&gt;d_fin -->
<g id="edge21" class="edge">
<title>f_logs&#45;&gt;d_fin</title>
<path fill="none" stroke="#666666" d="M1602.24,-75.65C1592.77,-81.3 1582.34,-87.75 1573,-94 1561.54,-101.68 1549.27,-110.62 1538.69,-118.56"/>
<polygon fill="#666666" stroke="#666666" points="1537.12,-116.69 1533.01,-122.86 1540.07,-120.59 1537.12,-116.69"/>
</g>
<!-- f_logs&#45;&gt;d_staff -->
<g id="edge22" class="edge">
<title>f_logs&#45;&gt;d_staff</title>
<path fill="none" stroke="#666666" d="M1569.5,-75.5C1553.75,-79.36 1536.83,-83.16 1521,-86 1489.74,-91.61 1479.59,-82.47 1450,-94 1435.71,-99.57 1421.73,-109.21 1410.59,-118.24"/>
<polygon fill="#666666" stroke="#666666" points="1408.84,-116.51 1405.03,-122.87 1411.98,-120.27 1408.84,-116.51"/>
</g>
<!-- f_logs&#45;&gt;d_comp -->
<g id="edge23" class="edge">
<title>f_logs&#45;&gt;d_comp</title>
<path fill="none" stroke="#666666" d="M1573.42,-75.55C1556.63,-79.74 1538.22,-83.69 1521,-86 1484.54,-90.9 1224.69,-81.76 1190,-94 1175.77,-99.02 1162.22,-108.81 1151.61,-118.07"/>
<polygon fill="#666666" stroke="#666666" points="1149.89,-116.32 1146.34,-122.84 1153.18,-119.96 1149.89,-116.32"/>
</g>
<!-- f_logs&#45;&gt;d_clin -->
<g id="edge24" class="edge">
<title>f_logs&#45;&gt;d_clin</title>
<path fill="none" stroke="#666666" d="M1573.71,-75.55C1556.85,-79.77 1538.32,-83.73 1521,-86 1471.42,-92.5 1119.33,-81.17 1071,-94 1051.71,-99.12 1032.03,-109.56 1016.58,-119.19"/>
<polygon fill="#666666" stroke="#666666" points="1015.24,-117.14 1010.66,-122.98 1017.88,-121.27 1015.24,-117.14"/>
</g>
<!-- f_logs&#45;&gt;d_it -->
<g id="edge25" class="edge">
<title>f_logs&#45;&gt;d_it</title>
<path fill="none" stroke="#666666" d="M1574.01,-75.53C1557.07,-79.78 1538.43,-83.76 1521,-86 1487,-90.37 936.2,-82.23 904,-94 890.64,-98.88 878.16,-108.42 868.38,-117.56"/>
<polygon fill="#666666" stroke="#666666" points="866.55,-115.92 863.24,-122.56 869.97,-119.43 866.55,-115.92"/>
</g>
<!-- f_logs&#45;&gt;d_proc -->
<g id="edge26" class="edge">
<title>f_logs&#45;&gt;d_proc</title>
<path fill="none" stroke="#666666" d="M1574.01,-75.56C1557.07,-79.8 1538.43,-83.78 1521,-86 1480.88,-91.12 831.69,-82.19 793,-94 776.6,-99.01 760.45,-109.16 747.81,-118.66"/>
<polygon fill="#666666" stroke="#666666" points="746.29,-116.74 742.25,-122.96 749.29,-120.61 746.29,-116.74"/>
</g>
<!-- f_logs&#45;&gt;d_found -->
<g id="edge27" class="edge">
<title>f_logs&#45;&gt;d_found</title>
<path fill="none" stroke="#666666" d="M1574.3,-75.5C1557.29,-79.78 1538.53,-83.78 1521,-86 1473.16,-92.06 700,-83.19 653,-94 631,-99.06 608.1,-109.63 590.08,-119.36"/>
<polygon fill="#666666" stroke="#666666" points="588.62,-117.37 583.68,-122.9 590.99,-121.66 588.62,-117.37"/>
</g>
<!-- f_hitl -->
<g id="node33" class="node">
<title>f_hitl</title>
<path fill="#fce4d6" stroke="#843c0c" d="M1500,-75.5C1500,-75.5 1294,-75.5 1294,-75.5 1288,-75.5 1282,-69.5 1282,-63.5 1282,-63.5 1282,-51.5 1282,-51.5 1282,-45.5 1288,-39.5 1294,-39.5 1294,-39.5 1500,-39.5 1500,-39.5 1506,-39.5 1512,-45.5 1512,-51.5 1512,-51.5 1512,-63.5 1512,-63.5 1512,-69.5 1506,-75.5 1500,-75.5"/>
<text text-anchor="middle" x="1397" y="-60.5" font-family="Arial" font-size="10.00">Human&#45;in&#45;the&#45;loop queues + exception taxonomy</text>
<text text-anchor="middle" x="1397" y="-49.5" font-family="Arial" font-size="10.00">(p14)</text>
</g>
<!-- f_hitl&#45;&gt;d_adm -->
<g id="edge28" class="edge">
<title>f_hitl&#45;&gt;d_adm</title>
<path fill="none" stroke="#666666" d="M1469.95,-75.51C1486.68,-79.18 1504.42,-82.89 1521,-86 1543.98,-90.31 1551.46,-84.91 1573,-94 1586.74,-99.8 1600.17,-109.37 1610.92,-118.29"/>
<polygon fill="#666666" stroke="#666666" points="1609.37,-120.19 1616.28,-122.87 1612.55,-116.46 1609.37,-120.19"/>
</g>
<!-- f_hitl&#45;&gt;d_rcm -->
<g id="edge29" class="edge">
<title>f_hitl&#45;&gt;d_rcm</title>
<path fill="none" stroke="#666666" d="M1359.86,-75.61C1348.5,-81.16 1336.09,-87.56 1325,-94 1312.09,-101.5 1298.36,-110.56 1286.65,-118.66"/>
<polygon fill="#666666" stroke="#666666" points="1285.06,-116.77 1280.72,-122.79 1287.86,-120.8 1285.06,-116.77"/>
</g>
<!-- f_hitl&#45;&gt;d_fin -->
<g id="edge30" class="edge">
<title>f_hitl&#45;&gt;d_fin</title>
<path fill="none" stroke="#666666" d="M1423.08,-75.55C1431.72,-81.31 1441.34,-87.84 1450,-94 1461.04,-101.85 1472.97,-110.75 1483.33,-118.62"/>
<polygon fill="#666666" stroke="#666666" points="1481.86,-120.58 1488.91,-122.87 1484.83,-116.68 1481.86,-120.58"/>
</g>
<!-- f_hitl&#45;&gt;d_staff -->
<g id="edge31" class="edge">
<title>f_hitl&#45;&gt;d_staff</title>
<path fill="none" stroke="#666666" d="M1394.88,-75.78C1393.46,-87.35 1391.57,-102.73 1390,-115.54"/>
<polygon fill="#666666" stroke="#666666" points="1387.54,-115.49 1389.12,-122.74 1392.4,-116.09 1387.54,-115.49"/>
</g>
<!-- f_hitl&#45;&gt;d_comp -->
<g id="edge32" class="edge">
<title>f_hitl&#45;&gt;d_comp</title>
<path fill="none" stroke="#666666" d="M1327.12,-75.56C1309.53,-79.42 1290.64,-83.2 1273,-86 1236.4,-91.8 1224.48,-80.42 1190,-94 1176.17,-99.45 1162.83,-109.08 1152.26,-118.12"/>
<polygon fill="#666666" stroke="#666666" points="1150.62,-116.3 1146.99,-122.78 1153.86,-119.98 1150.62,-116.3"/>
</g>
<!-- f_hitl&#45;&gt;d_clin -->
<g id="edge33" class="edge">
<title>f_hitl&#45;&gt;d_clin</title>
<path fill="none" stroke="#666666" d="M1330.46,-75.55C1311.97,-79.66 1291.81,-83.56 1273,-86 1228.45,-91.78 1114.29,-82 1071,-94 1052.07,-99.24 1032.73,-109.44 1017.38,-118.91"/>
<polygon fill="#666666" stroke="#666666" points="1015.67,-117.09 1011.06,-122.9 1018.29,-121.23 1015.67,-117.09"/>
</g>
<!-- f_hitl&#45;&gt;d_it -->
<g id="edge34" class="edge">
<title>f_hitl&#45;&gt;d_it</title>
<path fill="none" stroke="#666666" d="M1331.45,-75.56C1312.7,-79.75 1292.16,-83.69 1273,-86 1232.29,-90.91 942.46,-79.76 904,-94 890.66,-98.94 878.18,-108.49 868.4,-117.61"/>
<polygon fill="#666666" stroke="#666666" points="866.58,-115.97 863.26,-122.61 869.99,-119.49 866.58,-115.97"/>
</g>
<!-- f_hitl&#45;&gt;d_proc -->
<g id="edge35" class="edge">
<title>f_hitl&#45;&gt;d_proc</title>
<path fill="none" stroke="#666666" d="M1331.78,-75.55C1312.95,-79.77 1292.27,-83.73 1273,-86 1220.03,-92.25 843.97,-78.29 793,-94 776.61,-99.05 760.47,-109.21 747.82,-118.7"/>
<polygon fill="#666666" stroke="#666666" points="746.31,-116.77 742.26,-122.99 749.3,-120.65 746.31,-116.77"/>
</g>
<!-- f_hitl&#45;&gt;d_found -->
<g id="edge36" class="edge">
<title>f_hitl&#45;&gt;d_found</title>
<path fill="none" stroke="#666666" d="M1332.11,-75.52C1313.19,-79.77 1292.38,-83.75 1273,-86 1204.56,-93.94 720.11,-78.44 653,-94 631.01,-99.1 608.11,-109.67 590.09,-119.4"/>
<polygon fill="#666666" stroke="#666666" points="588.63,-117.4 583.68,-122.93 591,-121.69 588.63,-117.4"/>
</g>
<!-- f_metrics -->
<g id="node34" class="node">
<title>f_metrics</title>
<path fill="#fce4d6" stroke="#843c0c" d="M1251.5,-75.5C1251.5,-75.5 1134.5,-75.5 1134.5,-75.5 1128.5,-75.5 1122.5,-69.5 1122.5,-63.5 1122.5,-63.5 1122.5,-51.5 1122.5,-51.5 1122.5,-45.5 1128.5,-39.5 1134.5,-39.5 1134.5,-39.5 1251.5,-39.5 1251.5,-39.5 1257.5,-39.5 1263.5,-45.5 1263.5,-51.5 1263.5,-51.5 1263.5,-63.5 1263.5,-63.5 1263.5,-69.5 1257.5,-75.5 1251.5,-75.5"/>
<text text-anchor="middle" x="1193" y="-60.5" font-family="Arial" font-size="10.00">KPI framework / dashboards</text>
<text text-anchor="middle" x="1193" y="-49.5" font-family="Arial" font-size="10.00">(p15)</text>
</g>
<!-- f_metrics&#45;&gt;d_adm -->
<g id="edge37" class="edge">
<title>f_metrics&#45;&gt;d_adm</title>
<path fill="none" stroke="#666666" d="M1234.71,-75.51C1246.85,-79.73 1260.28,-83.7 1273,-86 1305.81,-91.93 1541.52,-82.99 1573,-94 1587.39,-99.03 1601.16,-108.82 1611.96,-118.08"/>
<polygon fill="#666666" stroke="#666666" points="1610.47,-120.03 1617.33,-122.85 1613.72,-116.37 1610.47,-120.03"/>
</g>
<!-- f_metrics&#45;&gt;d_rcm -->
<g id="edge38" class="edge">
<title>f_metrics&#45;&gt;d_rcm</title>
<path fill="none" stroke="#666666" d="M1206.57,-75.78C1215.99,-87.78 1228.64,-103.89 1238.91,-116.97"/>
<polygon fill="#666666" stroke="#666666" points="1237.2,-118.75 1243.45,-122.74 1241.05,-115.72 1237.2,-118.75"/>
</g>
<!-- f_metrics&#45;&gt;d_fin -->
<g id="edge39" class="edge">
<title>f_metrics&#45;&gt;d_fin</title>
<path fill="none" stroke="#666666" d="M1235.15,-75.51C1247.19,-79.67 1260.45,-83.61 1273,-86 1311.68,-93.36 1412.96,-80.66 1450,-94 1464.35,-99.17 1478.11,-108.97 1488.92,-118.2"/>
<polygon fill="#666666" stroke="#666666" points="1487.42,-120.15 1494.29,-122.95 1490.67,-116.48 1487.42,-120.15"/>
</g>
<!-- f_metrics&#45;&gt;d_staff -->
<g id="edge40" class="edge">
<title>f_metrics&#45;&gt;d_staff</title>
<path fill="none" stroke="#666666" d="M1238.28,-75.61C1249.51,-79.42 1261.6,-83.17 1273,-86 1295.27,-91.53 1302.81,-85.21 1324,-94 1338.06,-99.83 1351.92,-109.41 1363.04,-118.32"/>
<polygon fill="#666666" stroke="#666666" points="1361.64,-120.34 1368.6,-122.9 1364.75,-116.56 1361.64,-120.34"/>
</g>
<!-- f_metrics&#45;&gt;d_comp -->
<g id="edge41" class="edge">
<title>f_metrics&#45;&gt;d_comp</title>
<path fill="none" stroke="#666666" d="M1179.64,-75.78C1170.37,-87.78 1157.92,-103.89 1147.8,-116.97"/>
<polygon fill="#666666" stroke="#666666" points="1145.68,-115.7 1143.34,-122.74 1149.56,-118.7 1145.68,-115.7"/>
</g>
<!-- f_metrics&#45;&gt;d_clin -->
<g id="edge42" class="edge">
<title>f_metrics&#45;&gt;d_clin</title>
<path fill="none" stroke="#666666" d="M1147.83,-75.54C1136.86,-79.31 1125.09,-83.06 1114,-86 1095.21,-90.99 1089.31,-87.47 1071,-94 1053.19,-100.35 1034.62,-110.14 1019.48,-119.06"/>
<polygon fill="#666666" stroke="#666666" points="1017.96,-117.11 1013.22,-122.81 1020.48,-121.32 1017.96,-117.11"/>
</g>
<!-- f_metrics&#45;&gt;d_it -->
<g id="edge43" class="edge">
<title>f_metrics&#45;&gt;d_it</title>
<path fill="none" stroke="#666666" d="M1151.4,-75.57C1139.52,-79.73 1126.42,-83.66 1114,-86 1068.11,-94.66 947.66,-77.42 904,-94 890.7,-99.05 878.23,-108.61 868.44,-117.71"/>
<polygon fill="#666666" stroke="#666666" points="866.62,-116.07 863.29,-122.69 870.03,-119.59 866.62,-116.07"/>
</g>
<!-- f_metrics&#45;&gt;d_proc -->
<g id="edge44" class="edge">
<title>f_metrics&#45;&gt;d_proc</title>
<path fill="none" stroke="#666666" d="M1151.83,-75.53C1139.84,-79.75 1126.57,-83.71 1114,-86 1078.9,-92.39 827.05,-83.35 793,-94 776.9,-99.04 761.01,-108.96 748.46,-118.3"/>
<polygon fill="#666666" stroke="#666666" points="746.64,-116.61 742.57,-122.81 749.62,-120.49 746.64,-116.61"/>
</g>
<!-- f_metrics&#45;&gt;d_found -->
<g id="edge45" class="edge">
<title>f_metrics&#45;&gt;d_found</title>
<path fill="none" stroke="#666666" d="M1151.84,-75.59C1139.85,-79.81 1126.58,-83.76 1114,-86 1063.56,-94.98 702.88,-82.32 653,-94 631.02,-99.15 608.12,-109.72 590.1,-119.44"/>
<polygon fill="#666666" stroke="#666666" points="588.64,-117.44 583.69,-122.96 591,-121.73 588.64,-117.44"/>
</g>
<!-- f_opsmodel -->
<g id="node35" class="node">
<title>f_opsmodel</title>
<path fill="#fce4d6" stroke="#843c0c" d="M1092.5,-75.5C1092.5,-75.5 885.5,-75.5 885.5,-75.5 879.5,-75.5 873.5,-69.5 873.5,-63.5 873.5,-63.5 873.5,-51.5 873.5,-51.5 873.5,-45.5 879.5,-39.5 885.5,-39.5 885.5,-39.5 1092.5,-39.5 1092.5,-39.5 1098.5,-39.5 1104.5,-45.5 1104.5,-51.5 1104.5,-51.5 1104.5,-63.5 1104.5,-63.5 1104.5,-69.5 1098.5,-75.5 1092.5,-75.5"/>
<text text-anchor="middle" x="989" y="-60.5" font-family="Arial" font-size="10.00">Centralized automation factory + shared services</text>
<text text-anchor="middle" x="989" y="-49.5" font-family="Arial" font-size="10.00">(p22)</text>
</g>
<!-- f_opsmodel&#45;&gt;d_adm -->
<g id="edge46" class="edge">
<title>f_opsmodel&#45;&gt;d_adm</title>
<path fill="none" stroke="#666666" d="M1054.75,-75.54C1073.74,-79.75 1094.58,-83.72 1114,-86 1139.33,-88.98 1548.89,-85.69 1573,-94 1587.42,-98.97 1601.19,-108.75 1611.98,-118.02"/>
<polygon fill="#666666" stroke="#666666" points="1610.49,-119.97 1617.35,-122.79 1613.75,-116.31 1610.49,-119.97"/>
</g>
<!-- f_opsmodel&#45;&gt;d_rcm -->
<g id="edge47" class="edge">
<title>f_opsmodel&#45;&gt;d_rcm</title>
<path fill="none" stroke="#666666" d="M1059.8,-75.52C1077.43,-79.36 1096.34,-83.14 1114,-86 1147.53,-91.44 1158.13,-82.25 1190,-94 1205.13,-99.58 1220.11,-109.35 1232.05,-118.45"/>
<polygon fill="#666666" stroke="#666666" points="1230.63,-120.45 1237.66,-122.84 1233.66,-116.6 1230.63,-120.45"/>
</g>
<!-- f_opsmodel&#45;&gt;d_fin -->
<g id="edge48" class="edge">
<title>f_opsmodel&#45;&gt;d_fin</title>
<path fill="none" stroke="#666666" d="M1055.09,-75.53C1073.99,-79.72 1094.7,-83.67 1114,-86 1151.07,-90.48 1414.73,-81.72 1450,-94 1464.4,-99.01 1478.17,-108.8 1488.97,-118.06"/>
<polygon fill="#666666" stroke="#666666" points="1487.47,-120.01 1494.33,-122.83 1490.73,-116.35 1487.47,-120.01"/>
</g>
<!-- f_opsmodel&#45;&gt;d_staff -->
<g id="edge49" class="edge">
<title>f_opsmodel&#45;&gt;d_staff</title>
<path fill="none" stroke="#666666" d="M1056.08,-75.56C1074.72,-79.67 1095.05,-83.57 1114,-86 1160.32,-91.93 1279.89,-78.67 1324,-94 1338.71,-99.11 1352.91,-108.91 1364.1,-118.15"/>
<polygon fill="#666666" stroke="#666666" points="1362.74,-120.22 1369.66,-122.91 1365.93,-116.49 1362.74,-120.22"/>
</g>
<!-- f_opsmodel&#45;&gt;d_comp -->
<g id="edge50" class="edge">
<title>f_opsmodel&#45;&gt;d_comp</title>
<path fill="none" stroke="#666666" d="M1034.28,-75.67C1046.51,-80.95 1059.53,-87.19 1071,-94 1082.88,-101.04 1095.06,-110.17 1105.26,-118.44"/>
<polygon fill="#666666" stroke="#666666" points="1103.74,-120.36 1110.7,-122.92 1106.85,-116.58 1103.74,-120.36"/>
</g>
<!-- f_opsmodel&#45;&gt;d_clin -->
<g id="edge51" class="edge">
<title>f_opsmodel&#45;&gt;d_clin</title>
<path fill="none" stroke="#666666" d="M988.58,-75.78C988.29,-87.35 987.91,-102.73 987.6,-115.54"/>
<polygon fill="#666666" stroke="#666666" points="985.15,-115.68 987.42,-122.74 990.04,-115.8 985.15,-115.68"/>
</g>
<!-- f_opsmodel&#45;&gt;d_it -->
<g id="edge52" class="edge">
<title>f_opsmodel&#45;&gt;d_it</title>
<path fill="none" stroke="#666666" d="M941.04,-75.66C928.62,-80.87 915.51,-87.07 904,-94 892.64,-100.83 881.15,-109.83 871.56,-118.05"/>
<polygon fill="#666666" stroke="#666666" points="869.81,-116.33 866.15,-122.78 873.03,-120.02 869.81,-116.33"/>
</g>
<!-- f_opsmodel&#45;&gt;d_proc -->
<g id="edge53" class="edge">
<title>f_opsmodel&#45;&gt;d_proc</title>
<path fill="none" stroke="#666666" d="M918.44,-75.53C901.04,-79.34 882.4,-83.11 865,-86 833.24,-91.27 823.29,-83.08 793,-94 777.36,-99.64 761.74,-109.41 749.23,-118.5"/>
<polygon fill="#666666" stroke="#666666" points="747.49,-116.74 743.35,-122.89 750.42,-120.67 747.49,-116.74"/>
</g>
<!-- f_opsmodel&#45;&gt;d_found -->
<g id="edge54" class="edge">
<title>f_opsmodel&#45;&gt;d_found</title>
<path fill="none" stroke="#666666" d="M922.78,-75.5C904.21,-79.64 883.92,-83.57 865,-86 818.24,-92.02 698.79,-82.78 653,-94 631.23,-99.33 608.52,-109.8 590.54,-119.41"/>
<polygon fill="#666666" stroke="#666666" points="589.12,-117.4 584.15,-122.9 591.47,-121.7 589.12,-117.4"/>
</g>
</g>
</svg>
